<svg xmlns="http://www.w3.org/2000/svg" width="22" height="40" viewBox="0 0 22 40">
  <path d="M21.0405556,1.25 C20.5820554,0.780557392 19.9598893,0.516783359 19.3111111,0.516783359 C18.6623329,0.516783359 18.0401669,0.780557392 17.5816667,1.25 L0.965555556,18.23125 C0.506545006,18.7001706 0.248632618,19.3364769 0.248632618,20 C0.248632618,20.6635231 0.506545006,21.2998294 0.965555556,21.76875 L17.5816667,38.75 C18.1940343,39.4080209 19.1072205,39.6745331 19.9669189,39.4461327 C20.8266173,39.2177323 21.4975201,38.5303672 21.7193244,37.6507277 C21.9411286,36.7710881 21.6789245,35.8376205 21.0344444,35.2125 L6.14777778,20 L21.0344444,4.7875 C21.494266,4.31940927 21.7532783,3.68356888 21.7544245,3.02004544 C21.7555708,2.356522 21.498757,1.71974954 21.0405556,1.25 Z"/>
</svg>
