<svg xmlns="http://www.w3.org/2000/svg" width="14" height="11" viewBox="0 0 14 11">
  <path d="M11.4184397,1.63786765 C12.848227,1.63786765 14,2.81066176 14,4.26654412 L14,8.37132353 C14,9.82720588 12.848227,11 11.4184397,11 L2.58156028,11 C1.15177305,11 0,9.82720588 0,8.37132353 L0,4.26654412 C0,2.81066176 1.15177305,1.63786765 2.58156028,1.63786765 L3.37588652,1.63786765 C3.69361702,0.647058824 4.6070922,0 5.61985816,0 L8.4,0 C9.3929078,0.0202205882 10.2865248,0.667279412 10.6241135,1.63786765 L11.4184397,1.63786765 Z M12.8085106,8.37132353 L12.848227,4.26654412 C12.848227,3.47794118 12.2326241,2.85110294 11.458156,2.85110294 L10.5248227,2.85110294 C10.1078014,2.85110294 9.73049645,2.56801471 9.59148936,2.16360294 L9.55177305,2.0625 C9.3929078,1.57720588 8.93617021,1.23345588 8.41985816,1.23345588 L5.63971631,1.23345588 C5.12340426,1.23345588 4.66666667,1.57720588 4.50780142,2.0625 L4.46808511,2.16360294 C4.34893617,2.56801471 3.97163121,2.85110294 3.53475177,2.85110294 L2.60141844,2.85110294 C1.82695035,2.85110294 1.21134752,3.47794118 1.21134752,4.26654412 L1.21134752,8.37132353 C1.21134752,9.15992647 1.82695035,9.78676471 2.60141844,9.78676471 L11.4184397,9.78676471 C12.1929078,9.78676471 12.8085106,9.15992647 12.8085106,8.37132353 Z M7,9 C5.34314575,9 4,7.65685425 4,6 C4,4.34314575 5.34314575,3 7,3 C8.65685425,3 10,4.34314575 10,6 C10,7.65685425 8.65685425,9 7,9 Z M7,8 C8.1045695,8 9,7.1045695 9,6 C9,4.8954305 8.1045695,4 7,4 C5.8954305,4 5,4.8954305 5,6 C5,7.1045695 5.8954305,8 7,8 Z"/>
</svg>
