<svg xmlns="http://www.w3.org/2000/svg" width="80" height="64" viewBox="0 0 80 64">
  <path d="M53.8045738,30.1721068 L53.8045738,28.925816 L57.1309771,27.5133531 L57.1309771,30.1721068 L66.7111396,30.1721068 C66.4957411,27.2062263 65.760221,24.2943117 64.5589337,21.6271607 L66.8339977,20.6042933 C68.1794567,23.5915404 68.9924832,26.8525607 69.2119015,30.1721068 L80,30.1721068 L80,32.6646884 L69.2646294,32.6646884 C68.9119022,47.8345617 56.5164376,60 41.2474012,60 C36.7130857,60 32.2655161,58.9058447 28.3618451,56.8671059 L29.5175728,54.6581167 C33.0649903,56.5107978 37.1160967,57.5074184 41.2474012,57.5074184 C55.1385338,57.5074184 66.4170077,46.4577255 66.7690732,32.6646884 L57.1309771,32.6646884 L57.1309771,44.8783383 L53.8045738,44.8783383 L53.8045738,32.6646884 L29.5218295,32.6646884 L29.5218295,43.8982735 L43.4149431,37.9177394 L44.4021047,40.2068897 L27.027027,47.6862963 L27.027027,32.6646884 L15.6430168,32.6646884 C15.7518944,36.7202182 16.8544221,40.6898213 18.809095,44.2832178 L16.6171004,45.4734587 C14.4670595,41.5209053 13.2566233,37.1437434 13.1473987,32.6646884 L7.10542736e-15,32.6646884 L7.10542736e-15,30.1721068 L13.1978967,30.1721068 C14.1386079,15.5483193 26.2875229,4 41.1642412,4 C45.8232635,4 50.3591598,5.15517958 54.3915862,7.30389248 L53.2175615,9.50322918 C49.5430393,7.5452286 45.4097446,6.4925816 41.1642412,6.4925816 C27.6658728,6.4925816 16.6345089,16.92626 15.6984499,30.1721068 L27.027027,30.1721068 L27.027027,14.9035143 L51.9938719,30.1721068 L53.8045738,30.1721068 Z M47.2151403,30.1721068 L29.5218295,19.3516786 L29.5218295,30.1721068 L47.2151403,30.1721068 Z M53.8877339,16.7121662 L57.1309771,16.7121662 L57.1309771,22.1127596 L53.8877339,22.1127596 L53.8877339,16.7121662 Z"/>
</svg>
