<svg xmlns="http://www.w3.org/2000/svg" xmlns:xlink="http://www.w3.org/1999/xlink" width="32" height="74" viewBox="0 0 32 74">
  <defs>
    <path id="scroll_down-a" d="M0,32.4880556 L0,16.2440278 C0,7.30955556 7.2,0 16,0 C24.8,0 32,7.30955556 32,16.2440278 L32,32.4880556 C32,41.4215 24.8,48.7320833 16,48.7320833 C7.2,48.7320833 0,41.4215 0,32.4880556 Z M21.8667,63.7119444 C22.5778,62.9904444 23.6444,62.9904444 24.3556,63.7119444 C25.0667,64.4344722 25.0667,65.5167222 24.3556,66.23925 L17.2444,73.4583611 C16.8889,73.8191111 16.4444,74 16,74 C15.5556,74 15.1111,73.8191111 14.7556,73.4583611 L7.6444,66.23925 C6.9333,65.5167222 6.9333,64.4344722 7.6444,63.7119444 C8.3556,62.9904444 9.4222,62.9904444 10.1333,63.7119444 L16,69.6679167 L21.8667,63.7119444 Z M24.3556,53.7856667 C25.0667,54.5071667 25.0667,55.5904444 24.3556,56.3119444 L17.2444,63.5320833 C16.8889,63.8928333 16.4444,64.0726944 16,64.0726944 C15.5556,64.0726944 15.1111,63.8928333 14.7556,63.5320833 L7.6444,56.3119444 C6.9333,55.5904444 6.9333,54.5071667 7.6444,53.7856667 C8.3556,53.0631389 9.4222,53.0631389 10.1333,53.7856667 L16,59.7416389 L21.8667,53.7856667 C22.5778,53.0631389 23.6444,53.0631389 24.3556,53.7856667 Z M16,45.1215 C22.8444,45.1215 28.4444,39.4368611 28.4444,32.4880556 L28.4444,16.2440278 C28.4444,9.29522222 22.8444,3.60955556 16,3.60955556 C9.1556,3.60955556 3.5556,9.29522222 3.5556,16.2440278 L3.5556,32.4880556 C3.5556,39.4368611 9.1556,45.1215 16,45.1215 Z M16,9.92730556 C16.9778,9.92730556 17.7778,10.73925 17.7778,11.7320833 L17.7778,17.1464167 C17.7778,18.13925 16.9778,18.9511944 16,18.9511944 C15.0222,18.9511944 14.2222,18.13925 14.2222,17.1464167 L14.2222,11.7320833 C14.2222,10.73925 15.0222,9.92730556 16,9.92730556 Z"/>
  </defs>
  <use fill-rule="evenodd" xlink:href="#scroll_down-a"/>
</svg>
